<svg xmlns="http://www.w3.org/2000/svg" viewBox="0 0 132.13 112"><defs><style>.cls-1{fill:#183159;}.cls-2{fill:#f37e1f;}</style></defs><g id="Layer_2" data-name="Layer 2"><g id="OBJECTS"><polygon class="cls-1" points="29.52 112 29.54 112 29.54 42.23 19.54 27.91 19.54 97.72 29.52 112"/><polygon class="cls-2" points="122.13 31.77 122.13 84.03 132.13 69.72 132.13 0 102.58 42.3 102.58 59.74 122.13 31.77"/><polygon class="cls-1" points="102.59 111.99 112.59 97.68 112.59 0 66.06 66.58 19.54 0 19.54 17.41 37.22 42.71 37.2 42.73 66.06 84.04 102.59 31.77 102.59 111.99"/><polygon class="cls-2" points="96.56 50.9 66.06 94.55 0 0 0 69.75 10 84.06 10 31.77 66.06 112 96.57 68.35 96.56 50.9"/></g></g></svg>